<svg xmlns="http://www.w3.org/2000/svg" viewBox="0 0 217.11 863.56"><defs><style>.cls-1{fill:#668000;fill-rule:evenodd;}.cls-2{fill:#2b1100;}</style></defs><title>koivu_ta_2</title><g id="Layer_2" data-name="Layer 2"><g id="Layer_1-2" data-name="Layer 1"><path class="cls-1" d="M118.87,577.68c21.32-52.74,55.07-28.24,80.58-52.18,16.83-15.79,6.25-96,.25-72.4s-35,24.51-54,35c-37.9,20.9-27.61,91.3-26.8,89.56Z"/><path class="cls-2" d="M118.61,863.56a5,5,0,0,1-5-5V133.36a5,5,0,0,1,10,0v725.2A5,5,0,0,1,118.61,863.56Z"/><path class="cls-1" d="M117.84,423.43s-21.78-39.11-52.4-36.11c-35.31,3.45-61.69-67.53-56.57-69,8.57-2.5,15.9,21,49.88,16.88,27.21-3.32,37.3,7.4,49.71,21.74,11.8,13.65,11.38,69.73,9.38,66.52Z"/><path class="cls-1" d="M118.61,281.2s7.07-15.85,17.33-22.14,28.48,3.43,49.37-10C229.94,220.44,214.54,161,214.54,161c-.68-4.47-.64,14.21-21.49,24.3-10.12,4.9-24.88,4.68-32.48,6.9-29.63,8.69-37.22,32.88-39.63,52.19-1.1,8.76-2.33,36.84-2.33,36.84Z"/><path class="cls-1" d="M76.27,155c-17.72-5.1-41.5-7.4-53-20C5.14,115.17-3.85,62.32,1.56,65.1c0,0,28,22.09,55.21,23.09,23.13.85,37.45,5,49,19.57C116,120.62,118.16,139,118.61,155.34c0,0,0,40.12,0,40.48C118.61,195.82,113.8,165.83,76.27,155Z"/><path class="cls-1" d="M118.36,104.94c.61-18,.26-54.42,30.18-63.18C201.18,26.33,203.29-3.38,206.61.32s2.82,51.93,2.82,51.93c-.24,16.6-14.86,27.59-33.26,37.09-15.58,8-42.9,14.52-57,63.19,0,0-1.33-31.16-.76-47.59Z"/></g></g></svg>