<svg xmlns="http://www.w3.org/2000/svg" viewBox="0 0 476.61 828.28"><defs><style>.cls-1{fill:#2b1100;}.cls-2{fill:#222b00;}</style></defs><title>kuusi_ta_2</title><g id="Layer_2" data-name="Layer 2"><g id="Layer_1-2" data-name="Layer 1"><path class="cls-1" d="M242.48,828.28a5,5,0,0,1-5-5V5a5,5,0,0,1,10,0V823.28A5,5,0,0,1,242.48,828.28Z"/><path class="cls-2" d="M241.58,107.61a3,3,0,0,1-2.18-.93,3,3,0,0,1,.11-4.25l71.34-67.72a3,3,0,0,1,4.24.12,3,3,0,0,1-.11,4.24l-71.34,67.72A3,3,0,0,1,241.58,107.61Z"/><path class="cls-2" d="M241.86,229.41a3,3,0,0,1-2-5.24L319.23,154a3,3,0,1,1,4,4.5l-79.36,70.16A3,3,0,0,1,241.86,229.41Z"/><path class="cls-1" d="M241.86,383.38a2.5,2.5,0,0,1-2.18-1.27,2.38,2.38,0,0,1-.32-1.23,2.49,2.49,0,0,1,1.27-2.18L469.36,250a2.5,2.5,0,1,1,2.45,4.36L243.08,383.06A2.47,2.47,0,0,1,241.86,383.38Z"/><path class="cls-2" d="M241.86,229.41a3,3,0,0,1-2.15-.9L170.6,157.45a3,3,0,0,1,4.31-4.18l69.1,71a3,3,0,0,1,.85,2.1,3,3,0,0,1-3,3Z"/><path class="cls-2" d="M241.57,107.61a3,3,0,0,1-2.12-.88L171.17,38.17a3,3,0,0,1-.87-2.12,3,3,0,0,1,.88-2.12,3,3,0,0,1,4.24,0l68.28,68.55a3,3,0,0,1,0,4.25A3,3,0,0,1,241.57,107.61Z"/><path class="cls-2" d="M241.32,482.75a3,3,0,0,1-2.67-1.64,2.87,2.87,0,0,1-.33-1.36,3,3,0,0,1,1.64-2.67l114.76-58.26a3,3,0,0,1,4.36,2.67,3,3,0,0,1-1.65,2.68L242.68,482.43A3,3,0,0,1,241.32,482.75Z"/><path class="cls-2" d="M241.32,482.75a3,3,0,0,1-1.51-.4L136,421.85a3,3,0,0,1-1.49-2.59,2.93,2.93,0,0,1,.41-1.51,3,3,0,0,1,4.1-1.08l103.85,60.49a3,3,0,0,1,1.49,2.6,2.92,2.92,0,0,1-.41,1.5A3,3,0,0,1,241.32,482.75Z"/><path class="cls-1" d="M241.85,383.38a2.48,2.48,0,0,1-1.25-.34L19.32,254.15A2.48,2.48,0,0,1,18.08,252a2.5,2.5,0,0,1,3.76-2.16L243.11,378.72a2.5,2.5,0,0,1-1.26,4.66Z"/><path class="cls-2" d="M381.74,396.14a3,3,0,0,1-1.76-.57l-70.61-51.16a3,3,0,0,1,3.52-4.86l70.61,51.16a3,3,0,0,1,1.24,2.43,3,3,0,0,1-.57,1.76A3,3,0,0,1,381.74,396.14Z"/><path class="cls-2" d="M311.13,345a3,3,0,0,1-3-3V240.53a3,3,0,0,1,3-3c1.66,0,3,1.34,3,1V340C314.13,343.63,312.79,345,311.13,345Z"/><path class="cls-2" d="M166.22,339.23a3,3,0,0,1-3-3V231.63a3,3,0,0,1,6,0v104.6A3,3,0,0,1,166.22,339.23Z"/><path class="cls-2" d="M88.57,389.37a3,3,0,0,1-1.63-5.52l77.65-50.14a3,3,0,1,1,3.25,5.05L90.2,388.89A3.06,3.06,0,0,1,88.57,389.37Z"/><path class="cls-2" d="M434,363.36a3,3,0,0,1-1.72-.55l-69.21-48.44a3,3,0,0,1-1.28-2.46,2.94,2.94,0,0,1,.54-1.72,3,3,0,0,1,4.18-.74l69.21,48.45a3,3,0,0,1-1.72,5.46Z"/><path class="cls-2" d="M121.54,313.08a3,3,0,0,1-3-3v-97a3,3,0,0,1,6,0v97A3,3,0,0,1,121.54,313.08Z"/><path class="cls-2" d="M41.57,359.26a3,3,0,0,1-1.5-5.6l80-46.18a3,3,0,0,1,4.1,1.1,2.91,2.91,0,0,1,.4,1.5,3,3,0,0,1-1.5,2.6l-80,46.18A3,3,0,0,1,41.57,359.26Z"/><path class="cls-2" d="M364.8,314.91a3,3,0,0,1-3-3l-.28-94.44h0a3,3,0,0,1,3-3h0a3,3,0,0,1,3,3l.28,94.44h0a3,3,0,0,1-3,3Z"/><path class="cls-2" d="M40.41,359.93a3,3,0,0,1-1.51-5.6L120,307.48a3,3,0,0,1,4.1,1.1,2.91,2.91,0,0,1,.4,1.5,3,3,0,0,1-1.5,2.6L41.9,359.53A3,3,0,0,1,40.41,359.93Z"/><path class="cls-2" d="M473.61,319.3a2.93,2.93,0,0,1-1.43-.37l-60.06-32.61a3,3,0,0,1-1.57-2.64,2.93,2.93,0,0,1,.37-1.43A3,3,0,0,1,415,281L475,313.66a3,3,0,0,1,1.57,2.64,3.09,3.09,0,0,1-.36,1.43A3,3,0,0,1,473.61,319.3Z"/><path class="cls-2" d="M71.42,285.84a3,3,0,0,1-3-2.94l-1.57-80.79a.13.13,0,0,1,0-.06,3,3,0,0,1,6-.06l1.58,80.8v0a3,3,0,0,1-2.94,3Z"/><path class="cls-2" d="M413.55,286.68a3,3,0,0,1-3-3V209.84a3,3,0,1,1,6,0v73.84A3,3,0,0,1,413.55,286.68Z"/><path class="cls-2" d="M3,324.66a3,3,0,0,1-2.61-1.52A3.06,3.06,0,0,1,0,321.66a3,3,0,0,1,1.52-2.61l68.42-38.82A3,3,0,0,1,74,281.36a3,3,0,0,1-1.13,4.09L4.48,324.27A3.06,3.06,0,0,1,3,324.66Z"/><path class="cls-2" d="M241.88,591.18a3,3,0,0,1-1.39-5.66l107.65-56.34a3,3,0,0,1,4.05,1.27,2.89,2.89,0,0,1,.35,1.38,3,3,0,0,1-1.61,2.66L243.27,590.84A3,3,0,0,1,241.88,591.18Z"/><path class="cls-2" d="M241.88,591.18a3,3,0,0,1-1.52-.41L141.62,533a3,3,0,0,1-1.49-2.59,3.09,3.09,0,0,1,.41-1.51,3,3,0,0,1,4.11-1.07l98.75,57.78a3,3,0,0,1-1.52,5.59Z"/></g></g></svg>