<svg xmlns="http://www.w3.org/2000/svg" viewBox="0 0 150.1 158"><defs><style>.cls-1{fill:#8fd400;}.cls-2{fill:#363534;}</style></defs><title>slider-handle</title><g id="Layer_2" data-name="Layer 2"><g id="Layer_1-2" data-name="Layer 1"><path class="cls-1" d="M68.26,156a2,2,0,0,1-1.86-1.27L57.1,131a2,2,0,0,1,0-1.59l6.45-13.54L51.34,84.51H22a2,2,0,0,1-1.06-.3L2.94,73A2,2,0,0,1,2,71.33V4A2,2,0,0,1,3.7,2L4,2A2,2,0,0,1,5.91,3.4L25.55,66V20a2,2,0,0,1,1.62-2,1.69,1.69,0,0,1,.38,0,2,2,0,0,1,1.86,1.24L49.31,68V59.27a2,2,0,0,1,1.16-1.81,1.94,1.94,0,0,1,.84-.19,2,2,0,0,1,1.28.46L75.05,76.41,97.5,57.73a2,2,0,0,1,1.28-.46,2,2,0,0,1,.85.19,2,2,0,0,1,1.15,1.81V68l19.91-48.82A2,2,0,0,1,122.54,18a1.72,1.72,0,0,1,.39,0,2,2,0,0,1,1.61,2V66L144.19,3.4A2,2,0,0,1,146.1,2l.3,0a2,2,0,0,1,1.7,2V71.33a2,2,0,0,1-.95,1.7l-18,11.18a2,2,0,0,1-1.06.3H98.75L86.5,115.91l6.44,13.54A2,2,0,0,1,93,131l-9.3,23.69A2,2,0,0,1,81.84,156Z"/><path class="cls-2" d="M146.1,4V71.33l-18,11.18H97.39L84.32,116l6.82,14.33L81.84,154H68.26L59,130.31,65.78,116,52.71,82.51H22L4,71.33V4L27.55,79V20L51.31,78.24v-19L75.05,79,98.78,59.27v19L122.54,20V79L146.1,4m0-4a4,4,0,0,0-3.81,2.8L126.54,52.91V20a4,4,0,0,0-7.7-1.51L102.64,58.2a4,4,0,0,0-2.16-2.55,3.9,3.9,0,0,0-1.7-.38,4,4,0,0,0-2.56.92L75.05,73.81,53.87,56.19a4,4,0,0,0-2.56-.92,3.89,3.89,0,0,0-1.69.38,4,4,0,0,0-2.16,2.55L31.26,18.47A4,4,0,0,0,27.56,16a4.11,4.11,0,0,0-.78.07A4,4,0,0,0,23.55,20V52.91L7.82,2.8A4,4,0,0,0,4,0a4.3,4.3,0,0,0-.61.05A4,4,0,0,0,0,4V71.33a4,4,0,0,0,1.89,3.4l18,11.18a4.07,4.07,0,0,0,2.12.6H50l11.44,29.32-6.07,12.76a4,4,0,0,0-.11,3.18l9.29,23.69A4,4,0,0,0,68.26,158H81.84a4,4,0,0,0,3.72-2.54l9.3-23.69a4,4,0,0,0-.11-3.18l-6.07-12.76,11.44-29.32h28a4,4,0,0,0,2.11-.6l18-11.18a4,4,0,0,0,1.89-3.4V4A4,4,0,0,0,146.7.05a4.07,4.07,0,0,0-.61,0Z"/></g></g></svg>